<svg xmlns="http://www.w3.org/2000/svg" xmlns:xlink="http://www.w3.org/1999/xlink" width="500" zoomAndPan="magnify" viewBox="0 0 375 374.999991" height="500" preserveAspectRatio="xMidYMid meet" version="1.0"><path fill="#fecc02" d="M 187.5 9.382812 C 89.285156 9.382812 9.382812 89.285156 9.382812 187.5 C 9.382812 285.714844 89.285156 365.617188 187.5 365.617188 C 285.714844 365.617188 365.617188 285.714844 365.617188 187.5 C 365.617188 89.285156 285.714844 9.382812 187.5 9.382812 Z M 187.5 375 C 162.1875 375 137.632812 370.042969 114.515625 360.265625 C 92.1875 350.820312 72.136719 337.300781 54.917969 320.082031 C 37.699219 302.863281 24.179688 282.8125 14.734375 260.484375 C 4.957031 237.367188 0 212.8125 0 187.5 C 0 162.1875 4.957031 137.632812 14.734375 114.515625 C 24.179688 92.1875 37.699219 72.136719 54.917969 54.917969 C 72.136719 37.699219 92.1875 24.179688 114.515625 14.734375 C 137.632812 4.957031 162.1875 0 187.5 0 C 212.8125 0 237.367188 4.957031 260.484375 14.734375 C 282.8125 24.179688 302.863281 37.699219 320.082031 54.917969 C 337.300781 72.136719 350.820312 92.1875 360.265625 114.515625 C 370.042969 137.632812 375 162.1875 375 187.5 C 375 212.8125 370.042969 237.367188 360.265625 260.484375 C 350.820312 282.8125 337.300781 302.863281 320.082031 320.082031 C 302.863281 337.300781 282.8125 350.820312 260.484375 360.265625 C 237.367188 370.042969 212.8125 375 187.5 375 " fill-opacity="1" fill-rule="nonzero"/><path fill="#321019" d="M 44.054688 283.015625 C 46.648438 276.867188 50.171875 271.121094 54.691406 265.902344 C 61.605469 257.917969 69.277344 252.015625 77.332031 247.152344 C 87.492188 241.015625 98.03125 236.664062 108.578125 232.308594 C 117.101562 228.792969 125.757812 225.886719 133.910156 220.625 C 134.933594 219.960938 135.949219 219.238281 136.949219 218.484375 L 176.273438 316.363281 C 176.941406 300.617188 177.707031 284.871094 178.195312 269.121094 C 178.488281 259.734375 165.546875 250.847656 174.289062 241.972656 C 177.636719 238.570312 182.605469 237.6875 187.488281 237.707031 C 187.5 237.707031 187.511719 237.707031 187.523438 237.707031 C 187.539062 237.707031 187.550781 237.707031 187.5625 237.707031 C 192.441406 237.6875 197.414062 238.570312 200.761719 241.972656 C 209.503906 250.847656 196.5625 259.734375 196.855469 269.121094 C 197.34375 284.871094 198.105469 300.617188 198.773438 316.363281 L 238.097656 218.484375 C 239.101562 219.238281 240.113281 219.960938 241.140625 220.625 C 249.289062 225.886719 257.949219 228.792969 266.472656 232.308594 C 277.015625 236.664062 287.558594 241.015625 297.71875 247.152344 C 305.773438 252.015625 313.445312 257.917969 320.359375 265.902344 C 324.867188 271.109375 328.382812 276.839844 330.976562 282.96875 C 300.039062 329.308594 247.277344 359.890625 187.5 359.890625 C 127.746094 359.890625 74.992188 329.328125 44.054688 283.015625 Z M 126.507812 136.011719 C 126.507812 136.011719 127.34375 135.9375 128.421875 136.347656 C 130.4375 136.972656 133.453125 138.789062 134.394531 144.089844 C 134.394531 144.089844 136.980469 143.941406 136.976562 143.914062 L 138.117188 143.835938 C 137.59375 140.1875 137.285156 136.457031 137.152344 132.707031 C 137.8125 123.871094 139.054688 115.109375 141.734375 106.632812 C 143.199219 101.992188 145.332031 96.441406 149.207031 93.226562 C 151.382812 91.417969 153.621094 91.46875 156.222656 92.003906 C 161.652344 93.121094 167.21875 93.675781 172.777344 93.664062 C 187.117188 93.625 201.417969 89.800781 215.644531 91.480469 C 218.050781 91.765625 220.484375 92.222656 222.578125 93.371094 C 225.257812 94.839844 227.164062 97.339844 228.359375 100.03125 C 231.078125 106.113281 230.464844 113.011719 231.808594 119.488281 C 232.4375 122.523438 233.492188 125.460938 234.53125 128.398438 C 235.230469 130.382812 235.914062 132.382812 236.554688 134.394531 C 236.632812 137.339844 236.617188 140.285156 236.484375 143.230469 L 239.695312 143.207031 C 239.824219 142.789062 239.960938 142.375 240.117188 141.964844 C 240.886719 139.960938 242.519531 136.335938 244.722656 134.921875 L 244.949219 134.921875 C 244.953125 134.875 244.953125 134.828125 244.957031 134.777344 C 245.457031 134.5 245.980469 134.332031 246.535156 134.332031 C 250.289062 134.320312 253.773438 137.886719 244.996094 157.351562 C 244.996094 157.351562 243.863281 168.402344 237.847656 168.417969 C 236.71875 168.421875 235.417969 168.039062 233.925781 167.121094 C 233.925781 167.121094 229.648438 206.910156 189.023438 207.75 C 188.96875 207.753906 188.914062 207.753906 188.859375 207.753906 C 188.535156 207.753906 188.226562 207.738281 187.886719 207.742188 C 187.5625 207.742188 187.253906 207.757812 186.929688 207.757812 C 186.875 207.757812 186.820312 207.757812 186.765625 207.730469 C 146.136719 207.140625 141.636719 167.375 141.636719 167.375 C 140.148438 168.304688 138.851562 168.695312 137.722656 168.699219 C 131.710938 168.714844 130.511719 157.671875 130.511719 157.671875 C 128.296875 152.835938 125.246094 148.054688 124.625 142.664062 C 124.367188 140.410156 124.359375 137.214844 126.507812 136.011719 Z M 115.289062 133.269531 C 110.71875 140.554688 117.195312 153.25 120.265625 160.027344 C 120.453125 161.277344 120.917969 163.828125 121.917969 166.453125 C 124.882812 174.234375 129.84375 175.382812 132.53125 175.378906 C 132.839844 175.375 133.148438 175.359375 133.457031 175.332031 C 134.578125 179.90625 136.820312 186.835938 141.144531 193.816406 C 161.078125 226 214.640625 225.828125 234.382812 193.558594 C 238.667969 186.550781 240.871094 179.609375 241.964844 175.03125 C 242.273438 175.058594 242.582031 175.070312 242.890625 175.070312 C 245.582031 175.0625 250.53125 173.886719 253.453125 166.085938 C 254.441406 163.453125 254.890625 160.902344 255.070312 159.652344 C 255.511719 156.566406 257.980469 153.070312 259 150.0625 C 260.476562 145.691406 262.019531 140.863281 260.917969 136.230469 C 260.058594 132.617188 257.160156 129.300781 253.589844 128.707031 C 253.589844 121.167969 253.925781 113.636719 253.753906 106.097656 C 253.632812 100.664062 252.976562 95.261719 252.1875 89.890625 C 251.53125 85.402344 251.75 80.707031 250.433594 76.34375 C 247.933594 68.042969 241.246094 61.4375 233.667969 57.542969 C 228.46875 54.875 226.453125 49.101562 222.351562 45.3125 C 217.660156 40.980469 210.9375 39.371094 205.140625 37.199219 C 200.640625 35.511719 195.925781 34.410156 191.144531 33.953125 C 188.324219 33.679688 185.480469 33.632812 182.648438 33.824219 C 179.996094 34.003906 177.371094 34.386719 174.78125 34.929688 C 171.058594 35.703125 131.824219 44.648438 138.074219 53.890625 C 138.074219 53.925781 138.070312 53.957031 138.070312 53.988281 C 138.054688 54.003906 138.042969 54.019531 138.03125 54.03125 C 132.96875 56.148438 127.988281 59.992188 129.386719 66.824219 C 129.316406 66.976562 129.246094 67.128906 129.175781 67.28125 C 128.550781 68.621094 127.179688 69.636719 126.550781 71.070312 C 125.375 73.757812 125.523438 77.421875 125.109375 80.292969 C 123.804688 89.316406 121.890625 98.210938 121.652344 107.363281 C 121.605469 109.054688 122.054688 128.855469 121.890625 128.882812 C 119.210938 129.335938 116.734375 130.964844 115.289062 133.269531 " fill-opacity="1" fill-rule="nonzero"/></svg>