<svg xmlns="http://www.w3.org/2000/svg" xmlns:xlink="http://www.w3.org/1999/xlink" width="500" zoomAndPan="magnify" viewBox="0 0 375 374.999991" height="500" preserveAspectRatio="xMidYMid meet" version="1.0"><defs><clipPath id="0446068a1e"><path d="M 0 23.164062 L 375 23.164062 L 375 352 L 0 352 Z M 0 23.164062 " clip-rule="nonzero"/></clipPath><clipPath id="e246e4b19a"><path d="M 280.683594 23.164062 L 94.316406 23.164062 L 0 187.5 L 94.316406 351.835938 L 280.683594 351.835938 L 375 187.5 L 280.683594 23.164062 M 275.554688 342.933594 L 99.445312 342.933594 L 10.261719 187.5 L 99.445312 32.066406 L 275.554688 32.066406 L 364.738281 187.5 L 275.554688 342.933594 " clip-rule="nonzero"/></clipPath><clipPath id="447f22e315"><path d="M 179 112.5 L 197 112.5 L 197 159 L 179 159 Z M 179 112.5 " clip-rule="nonzero"/></clipPath><clipPath id="ef0f69d0c3"><path d="M 122 187 L 255 187 L 255 262.5 L 122 262.5 Z M 122 187 " clip-rule="nonzero"/></clipPath><clipPath id="cc8837beeb"><path d="M 245 212 L 258 212 L 258 237 L 245 237 Z M 245 212 " clip-rule="nonzero"/></clipPath><clipPath id="6a6fa808a5"><path d="M 117 209 L 130 209 L 130 234 L 117 234 Z M 117 209 " clip-rule="nonzero"/></clipPath></defs><g clip-path="url(#0446068a1e)"><g clip-path="url(#e246e4b19a)"><path fill="#fecc02" d="M 0 23.164062 L 375 23.164062 L 375 352.136719 L 0 352.136719 Z M 0 23.164062 " fill-opacity="1" fill-rule="nonzero"/></g></g><path fill="#ffffff" d="M 219.710938 161.816406 C 219.710938 162.808594 219.660156 163.800781 219.5625 164.785156 C 219.46875 165.773438 219.320312 166.753906 219.128906 167.726562 C 218.933594 168.699219 218.695312 169.664062 218.40625 170.613281 C 218.117188 171.5625 217.785156 172.496094 217.402344 173.410156 C 217.023438 174.328125 216.601562 175.222656 216.132812 176.097656 C 215.664062 176.972656 215.15625 177.824219 214.605469 178.648438 C 214.054688 179.472656 213.460938 180.269531 212.832031 181.035156 C 212.203125 181.804688 211.539062 182.539062 210.835938 183.238281 C 210.136719 183.941406 209.402344 184.605469 208.632812 185.234375 C 207.867188 185.867188 207.070312 186.457031 206.246094 187.007812 C 205.421875 187.558594 204.570312 188.066406 203.695312 188.535156 C 202.820312 189.003906 201.925781 189.425781 201.007812 189.804688 C 200.09375 190.1875 199.160156 190.519531 198.210938 190.808594 C 197.261719 191.097656 196.296875 191.335938 195.324219 191.53125 C 194.351562 191.722656 193.371094 191.871094 192.382812 191.964844 C 191.398438 192.0625 190.40625 192.113281 189.414062 192.113281 C 188.421875 192.113281 187.433594 192.0625 186.445312 191.964844 C 185.457031 191.871094 184.476562 191.722656 183.503906 191.53125 C 182.53125 191.335938 181.570312 191.097656 180.621094 190.808594 C 179.671875 190.519531 178.738281 190.1875 177.820312 189.804688 C 176.90625 189.425781 176.007812 189.003906 175.132812 188.535156 C 174.257812 188.066406 173.410156 187.558594 172.585938 187.007812 C 171.757812 186.457031 170.964844 185.867188 170.195312 185.234375 C 169.429688 184.605469 168.695312 183.941406 167.992188 183.238281 C 167.292969 182.539062 166.625 181.804688 165.996094 181.035156 C 165.367188 180.269531 164.777344 179.472656 164.226562 178.648438 C 163.675781 177.824219 163.164062 176.972656 162.699219 176.097656 C 162.230469 175.222656 161.804688 174.328125 161.425781 173.410156 C 161.046875 172.496094 160.710938 171.5625 160.425781 170.613281 C 160.136719 169.664062 159.894531 168.699219 159.703125 167.726562 C 159.507812 166.753906 159.363281 165.773438 159.265625 164.785156 C 159.167969 163.800781 159.121094 162.808594 159.121094 161.816406 C 159.121094 160.824219 159.167969 159.835938 159.265625 158.847656 C 159.363281 157.859375 159.507812 156.878906 159.703125 155.90625 C 159.894531 154.933594 160.136719 153.972656 160.425781 153.023438 C 160.710938 152.074219 161.046875 151.140625 161.425781 150.222656 C 161.804688 149.308594 162.230469 148.410156 162.699219 147.535156 C 163.164062 146.660156 163.675781 145.8125 164.226562 144.988281 C 164.777344 144.160156 165.367188 143.367188 165.996094 142.597656 C 166.625 141.832031 167.292969 141.097656 167.992188 140.394531 C 168.695312 139.695312 169.429688 139.027344 170.195312 138.398438 C 170.964844 137.769531 171.757812 137.179688 172.585938 136.628906 C 173.410156 136.078125 174.257812 135.566406 175.132812 135.101562 C 176.007812 134.632812 176.90625 134.207031 177.820312 133.828125 C 178.738281 133.449219 179.671875 133.117188 180.621094 132.828125 C 181.570312 132.539062 182.53125 132.296875 183.503906 132.105469 C 184.476562 131.910156 185.457031 131.765625 186.445312 131.667969 C 187.433594 131.570312 188.421875 131.523438 189.414062 131.523438 C 190.40625 131.523438 191.398438 131.570312 192.382812 131.667969 C 193.371094 131.765625 194.351562 131.910156 195.324219 132.105469 C 196.296875 132.296875 197.261719 132.539062 198.210938 132.828125 C 199.160156 133.117188 200.09375 133.449219 201.007812 133.828125 C 201.925781 134.207031 202.820312 134.632812 203.695312 135.101562 C 204.570312 135.566406 205.421875 136.078125 206.246094 136.628906 C 207.070312 137.179688 207.867188 137.769531 208.632812 138.398438 C 209.402344 139.027344 210.136719 139.695312 210.835938 140.394531 C 211.539062 141.097656 212.203125 141.832031 212.832031 142.597656 C 213.460938 143.367188 214.054688 144.160156 214.605469 144.988281 C 215.15625 145.8125 215.664062 146.660156 216.132812 147.535156 C 216.601562 148.410156 217.023438 149.308594 217.402344 150.222656 C 217.785156 151.140625 218.117188 152.074219 218.40625 153.023438 C 218.695312 153.972656 218.933594 154.933594 219.128906 155.90625 C 219.320312 156.878906 219.46875 157.859375 219.5625 158.847656 C 219.660156 159.835938 219.710938 160.824219 219.710938 161.816406 Z M 219.710938 161.816406 " fill-opacity="1" fill-rule="nonzero"/><path fill="#321019" d="M 189.414062 193.234375 C 172.089844 193.234375 157.996094 179.140625 157.996094 161.816406 C 157.996094 144.492188 172.089844 130.398438 189.414062 130.398438 C 206.738281 130.398438 220.832031 144.492188 220.832031 161.816406 C 220.832031 179.140625 206.738281 193.234375 189.414062 193.234375 Z M 189.414062 132.644531 C 173.328125 132.644531 160.242188 145.730469 160.242188 161.816406 C 160.242188 177.902344 173.328125 190.992188 189.414062 190.992188 C 205.5 190.992188 218.589844 177.902344 218.589844 161.816406 C 218.589844 145.730469 205.5 132.644531 189.414062 132.644531 Z M 189.414062 132.644531 " fill-opacity="1" fill-rule="nonzero"/><path fill="#ffffff" d="M 172.390625 183.484375 C 172.136719 183.484375 171.882812 183.398438 171.671875 183.226562 C 166.324219 178.785156 162.84375 172.566406 161.882812 165.71875 C 161.796875 165.105469 162.226562 164.535156 162.839844 164.449219 C 163.457031 164.363281 164.019531 164.792969 164.105469 165.40625 C 164.992188 171.699219 168.1875 177.414062 173.105469 181.496094 C 173.582031 181.894531 173.648438 182.601562 173.253906 183.078125 C 173.03125 183.34375 172.710938 183.484375 172.390625 183.484375 Z M 172.390625 183.484375 " fill-opacity="1" fill-rule="nonzero"/><path fill="#b90504" d="M 160.589844 159.695312 L 160.589844 157.640625 L 219.113281 157.640625 C 219.546875 155.457031 219.785156 153.191406 219.785156 150.871094 C 219.785156 132.925781 206.054688 118.378906 189.121094 118.378906 C 172.1875 118.378906 158.460938 132.925781 158.460938 150.871094 C 158.460938 153.933594 158.867188 156.886719 159.617188 159.695312 Z M 160.589844 159.695312 " fill-opacity="1" fill-rule="nonzero"/><path fill="#321019" d="M 160.589844 160.816406 L 159.617188 160.816406 C 159.109375 160.816406 158.664062 160.476562 158.53125 159.984375 C 157.742188 157.011719 157.339844 153.949219 157.339844 150.871094 C 157.339844 132.335938 171.597656 117.253906 189.121094 117.253906 C 206.648438 117.253906 220.90625 132.335938 220.90625 150.871094 C 220.90625 153.203125 220.671875 155.554688 220.214844 157.859375 C 220.109375 158.386719 219.648438 158.761719 219.113281 158.761719 L 161.710938 158.761719 L 161.710938 159.695312 C 161.710938 160.316406 161.210938 160.816406 160.589844 160.816406 Z M 189.121094 119.5 C 172.835938 119.5 159.582031 133.574219 159.582031 150.871094 C 159.582031 152.804688 159.753906 154.734375 160.089844 156.636719 C 160.238281 156.558594 160.410156 156.515625 160.589844 156.515625 L 218.179688 156.515625 C 218.5 154.648438 218.660156 152.753906 218.660156 150.871094 C 218.660156 133.574219 205.410156 119.5 189.121094 119.5 Z M 189.121094 119.5 " fill-opacity="1" fill-rule="nonzero"/><path fill="#b90504" d="M 195.230469 150.777344 C 195.230469 154.667969 192.078125 157.820312 188.191406 157.820312 L 188.042969 157.820312 C 184.15625 157.820312 181 154.667969 181 150.777344 L 181 120.851562 C 181 116.960938 184.15625 113.808594 188.042969 113.808594 L 188.191406 113.808594 C 192.078125 113.808594 195.230469 116.960938 195.230469 120.851562 Z M 195.230469 150.777344 " fill-opacity="1" fill-rule="nonzero"/><g clip-path="url(#447f22e315)"><path fill="#321019" d="M 188.1875 158.941406 L 188.042969 158.941406 C 183.539062 158.941406 179.878906 155.28125 179.878906 150.777344 L 179.878906 120.851562 C 179.878906 116.351562 183.539062 112.6875 188.042969 112.6875 L 188.1875 112.6875 C 192.691406 112.6875 196.351562 116.351562 196.351562 120.851562 L 196.351562 150.777344 C 196.355469 155.28125 192.691406 158.941406 188.1875 158.941406 Z M 188.042969 114.933594 C 184.777344 114.933594 182.125 117.589844 182.125 120.851562 L 182.125 150.78125 C 182.125 154.042969 184.777344 156.699219 188.042969 156.699219 L 188.1875 156.699219 C 191.453125 156.699219 194.109375 154.042969 194.109375 150.78125 L 194.109375 120.851562 C 194.109375 117.589844 191.453125 114.933594 188.1875 114.933594 Z M 188.042969 114.933594 " fill-opacity="1" fill-rule="nonzero"/></g><path fill="#b90504" d="M 228.902344 158.742188 C 228.902344 161.988281 225.898438 164.621094 222.191406 164.621094 L 156.640625 164.621094 C 152.933594 164.621094 149.929688 161.988281 149.929688 158.742188 C 149.929688 155.492188 152.933594 152.859375 156.640625 152.859375 L 222.191406 152.859375 C 225.898438 152.859375 228.902344 155.492188 228.902344 158.742188 Z M 228.902344 158.742188 " fill-opacity="1" fill-rule="nonzero"/><path fill="#321019" d="M 222.191406 165.746094 L 156.640625 165.746094 C 152.320312 165.746094 148.804688 162.601562 148.804688 158.742188 C 148.804688 154.878906 152.320312 151.738281 156.640625 151.738281 L 222.191406 151.738281 C 226.511719 151.738281 230.027344 154.878906 230.027344 158.742188 C 230.027344 162.601562 226.511719 165.746094 222.191406 165.746094 Z M 156.640625 153.984375 C 153.558594 153.984375 151.050781 156.117188 151.050781 158.738281 C 151.050781 161.363281 153.558594 163.5 156.640625 163.5 L 222.191406 163.5 C 225.273438 163.5 227.78125 161.363281 227.78125 158.738281 C 227.78125 156.117188 225.273438 153.984375 222.191406 153.984375 Z M 156.640625 153.984375 " fill-opacity="1" fill-rule="nonzero"/><g clip-path="url(#ef0f69d0c3)"><path fill="#b90504" d="M 244.414062 257.535156 C 244.414062 260.175781 242.277344 262.3125 239.636719 262.3125 L 137.351562 262.3125 C 134.714844 262.3125 132.574219 260.175781 132.574219 257.535156 L 122.226562 192.660156 C 122.226562 190.023438 124.363281 187.882812 127.003906 187.882812 L 249.988281 187.882812 C 252.625 187.882812 254.761719 190.023438 254.761719 192.660156 Z M 244.414062 257.535156 " fill-opacity="1" fill-rule="nonzero"/></g><path fill="#ffffff" d="M 128.894531 205.3125 C 128.351562 205.3125 127.875 204.921875 127.789062 204.367188 L 126.398438 195.648438 C 126.386719 195.589844 126.382812 195.53125 126.382812 195.472656 C 126.382812 192.355469 128.917969 189.820312 132.039062 189.820312 L 140.933594 189.820312 C 141.550781 189.820312 142.054688 190.320312 142.054688 190.941406 C 142.054688 191.5625 141.550781 192.0625 140.933594 192.0625 L 132.039062 192.0625 C 130.183594 192.0625 128.675781 193.546875 128.628906 195.390625 L 130.003906 204.011719 C 130.101562 204.625 129.683594 205.203125 129.074219 205.300781 C 129.011719 205.308594 128.953125 205.3125 128.894531 205.3125 Z M 128.894531 205.3125 " fill-opacity="1" fill-rule="nonzero"/><path fill="#ffffff" d="M 256.886719 230.605469 C 256.886719 233.242188 254.75 235.382812 252.109375 235.382812 L 251.046875 235.382812 C 248.410156 235.382812 246.273438 233.242188 246.273438 230.605469 L 246.273438 218.398438 C 246.273438 215.761719 248.410156 213.621094 251.046875 213.621094 L 252.109375 213.621094 C 254.75 213.621094 256.886719 215.761719 256.886719 218.398438 Z M 256.886719 230.605469 " fill-opacity="1" fill-rule="nonzero"/><g clip-path="url(#cc8837beeb)"><path fill="#321019" d="M 252.109375 236.503906 L 251.046875 236.503906 C 247.796875 236.503906 245.152344 233.855469 245.152344 230.605469 L 245.152344 218.398438 C 245.152344 215.144531 247.796875 212.5 251.046875 212.5 L 252.109375 212.5 C 255.363281 212.5 258.007812 215.144531 258.007812 218.398438 L 258.007812 230.605469 C 258.007812 233.855469 255.363281 236.503906 252.109375 236.503906 Z M 251.046875 214.746094 C 249.035156 214.746094 247.394531 216.382812 247.394531 218.398438 L 247.394531 230.605469 C 247.394531 232.621094 249.035156 234.257812 251.046875 234.257812 L 252.109375 234.257812 C 254.125 234.257812 255.765625 232.621094 255.765625 230.605469 L 255.765625 218.398438 C 255.765625 216.386719 254.125 214.746094 252.109375 214.746094 Z M 251.046875 214.746094 " fill-opacity="1" fill-rule="nonzero"/></g><path fill="#ffffff" d="M 128.726562 227.949219 C 128.726562 230.589844 126.589844 232.726562 123.949219 232.726562 L 122.890625 232.726562 C 120.25 232.726562 118.113281 230.589844 118.113281 227.949219 L 118.113281 215.746094 C 118.113281 213.109375 120.25 210.96875 122.890625 210.96875 L 123.949219 210.96875 C 126.589844 210.96875 128.726562 213.105469 128.726562 215.746094 Z M 128.726562 227.949219 " fill-opacity="1" fill-rule="nonzero"/><g clip-path="url(#6a6fa808a5)"><path fill="#321019" d="M 123.953125 233.851562 L 122.890625 233.851562 C 119.636719 233.851562 116.992188 231.203125 116.992188 227.949219 L 116.992188 215.746094 C 116.992188 212.492188 119.636719 209.847656 122.890625 209.847656 L 123.953125 209.847656 C 127.203125 209.847656 129.851562 212.492188 129.851562 215.746094 L 129.851562 227.949219 C 129.851562 231.203125 127.203125 233.851562 123.953125 233.851562 Z M 122.890625 212.09375 C 120.875 212.09375 119.238281 213.730469 119.238281 215.746094 L 119.238281 227.953125 C 119.238281 229.964844 120.875 231.605469 122.890625 231.605469 L 123.953125 231.605469 C 125.964844 231.605469 127.605469 229.964844 127.605469 227.953125 L 127.605469 215.746094 C 127.605469 213.730469 125.964844 212.09375 123.953125 212.09375 Z M 122.890625 212.09375 " fill-opacity="1" fill-rule="nonzero"/></g></svg>