<svg xmlns="http://www.w3.org/2000/svg" xmlns:xlink="http://www.w3.org/1999/xlink" width="500" zoomAndPan="magnify" viewBox="0 0 375 374.999991" height="500" preserveAspectRatio="xMidYMid meet" version="1.0"><defs><clipPath id="ec20b252f6"><path d="M 0 18 L 375 18 L 375 346.972656 L 0 346.972656 Z M 0 18 " clip-rule="nonzero"/></clipPath><clipPath id="c05595c9e8"><path d="M 280.683594 18 L 94.316406 18 L 0 182.332031 L 94.316406 346.667969 L 280.683594 346.667969 L 375 182.332031 L 280.683594 18 M 275.554688 337.765625 L 99.445312 337.765625 L 10.261719 182.332031 L 99.445312 26.902344 L 275.554688 26.902344 L 364.738281 182.332031 L 275.554688 337.765625 " clip-rule="nonzero"/></clipPath><clipPath id="50957193e1"><path d="M 91.527344 120.070312 L 283.527344 120.070312 L 283.527344 244.570312 L 91.527344 244.570312 Z M 91.527344 120.070312 " clip-rule="nonzero"/></clipPath></defs><g clip-path="url(#ec20b252f6)"><g clip-path="url(#c05595c9e8)"><path fill="#fecc02" d="M 0 18 L 375 18 L 375 346.972656 L 0 346.972656 Z M 0 18 " fill-opacity="1" fill-rule="nonzero"/></g></g><g clip-path="url(#50957193e1)"><path fill="#b90504" d="M 253.667969 201.183594 L 248.636719 201.183594 L 248.636719 196.054688 C 248.636719 196.054688 251.378906 192.902344 253.667969 196.054688 Z M 253.238281 210.582031 L 248.636719 210.582031 L 248.636719 205.890625 C 248.636719 205.890625 251.144531 203.007812 253.238281 205.890625 Z M 242.253906 211.222656 L 237.160156 211.222656 L 237.160156 206.027344 C 237.160156 206.027344 239.9375 202.839844 242.253906 206.027344 Z M 231.019531 142.5625 L 225.128906 142.5625 L 225.128906 136.558594 C 225.128906 136.558594 228.339844 132.867188 231.019531 136.558594 Z M 231.019531 152.519531 L 225.128906 152.519531 L 225.128906 146.511719 C 225.128906 146.511719 228.339844 142.824219 231.019531 146.511719 Z M 231.019531 162.476562 L 225.128906 162.476562 L 225.128906 156.46875 C 225.128906 156.46875 228.339844 152.78125 231.019531 156.46875 Z M 231.019531 172.429688 L 225.128906 172.429688 L 225.128906 166.425781 C 225.128906 166.425781 228.339844 162.738281 231.019531 166.425781 Z M 231.019531 182.386719 L 225.128906 182.386719 L 225.128906 176.382812 C 225.128906 176.382812 228.339844 172.691406 231.019531 176.382812 Z M 231.019531 192.34375 L 225.128906 192.34375 L 225.128906 186.335938 C 225.128906 186.335938 228.339844 182.648438 231.019531 186.335938 Z M 231.019531 202.300781 L 225.128906 202.300781 L 225.128906 196.292969 C 225.128906 196.292969 228.339844 192.605469 231.019531 196.292969 Z M 231.019531 212.253906 L 225.128906 212.253906 L 225.128906 206.25 C 225.128906 206.25 228.339844 202.5625 231.019531 206.25 Z M 221.226562 228.238281 L 219.949219 228.34375 L 219.949219 132.261719 L 221.226562 132.261719 Z M 205.6875 232.921875 L 187.519531 233.996094 L 187.519531 202.652344 C 187.519531 202.652344 187.585938 202.558594 187.710938 202.398438 L 187.710938 202.675781 L 196.042969 202.675781 L 196.042969 215.566406 C 195.710938 216.007812 195.488281 216.828125 195.488281 217.765625 C 195.488281 218.707031 195.710938 219.527344 196.042969 219.96875 L 196.042969 233.039062 L 197.164062 233.039062 L 197.164062 219.96875 C 197.496094 219.527344 197.71875 218.707031 197.71875 217.765625 C 197.71875 216.828125 197.496094 216.007812 197.164062 215.566406 L 197.164062 202.675781 L 205.5 202.675781 L 205.5 202.386719 C 205.5625 202.476562 205.625 202.5625 205.6875 202.652344 Z M 205.445312 202.316406 L 187.769531 202.316406 C 189.273438 200.359375 197.328125 190.957031 205.445312 202.316406 Z M 237.160156 196.054688 C 237.160156 196.054688 239.90625 192.902344 242.191406 196.054688 L 242.191406 201.183594 L 237.160156 201.183594 Z M 237.160156 185.96875 C 237.160156 185.96875 239.652344 183.109375 241.730469 185.96875 L 241.730469 190.628906 L 237.160156 190.628906 Z M 237.160156 176.132812 C 237.160156 176.132812 239.882812 173.003906 242.152344 176.132812 L 242.152344 181.222656 L 237.160156 181.222656 Z M 237.160156 166.175781 C 237.160156 166.175781 239.882812 163.050781 242.152344 166.175781 L 242.152344 171.265625 L 237.160156 171.265625 Z M 237.160156 156.21875 C 237.160156 156.21875 239.882812 153.09375 242.152344 156.21875 L 242.152344 161.3125 L 237.160156 161.3125 Z M 237.160156 146.246094 C 237.160156 146.246094 239.851562 143.160156 242.089844 146.246094 L 242.089844 151.273438 L 237.160156 151.273438 Z M 237.160156 136.308594 C 237.160156 136.308594 239.882812 133.179688 242.152344 136.308594 L 242.152344 141.398438 L 237.160156 141.398438 Z M 248.636719 185.96875 C 248.636719 185.96875 251.128906 183.109375 253.207031 185.96875 L 253.207031 190.628906 L 248.636719 190.628906 Z M 248.636719 176.011719 C 248.636719 176.011719 251.128906 173.152344 253.207031 176.011719 L 253.207031 180.671875 L 248.636719 180.671875 Z M 248.636719 166.054688 C 248.636719 166.054688 251.128906 163.195312 253.207031 166.054688 L 253.207031 170.714844 L 248.636719 170.714844 Z M 248.636719 156.101562 C 248.636719 156.101562 251.128906 153.242188 253.207031 156.101562 L 253.207031 160.761719 L 248.636719 160.761719 Z M 248.636719 146.144531 C 248.636719 146.144531 251.128906 143.285156 253.207031 146.144531 L 253.207031 150.804688 L 248.636719 150.804688 Z M 248.636719 136.1875 C 248.636719 136.1875 251.128906 133.328125 253.207031 136.1875 L 253.207031 140.847656 L 248.636719 140.847656 Z M 179.121094 134.917969 L 171.816406 134.917969 L 171.816406 127.46875 C 171.816406 127.46875 175.800781 122.894531 179.121094 127.46875 Z M 179.121094 151.960938 L 171.816406 151.960938 L 171.816406 144.511719 C 171.816406 144.511719 175.800781 139.9375 179.121094 144.511719 Z M 179.121094 169.007812 L 171.816406 169.007812 L 171.816406 161.558594 C 171.816406 161.558594 175.800781 156.984375 179.121094 161.558594 Z M 179.121094 186.050781 L 171.816406 186.050781 L 171.816406 178.601562 C 171.816406 178.601562 175.800781 174.03125 179.121094 178.601562 Z M 179.121094 203.097656 L 171.816406 203.097656 L 171.816406 195.644531 C 171.816406 195.644531 175.800781 191.074219 179.121094 195.644531 Z M 179.121094 220.140625 L 171.816406 220.140625 L 171.816406 212.691406 C 171.816406 212.691406 175.800781 208.117188 179.121094 212.691406 Z M 162.253906 134.917969 L 154.949219 134.917969 L 154.949219 127.46875 C 154.949219 127.46875 158.933594 122.894531 162.253906 127.46875 Z M 162.253906 151.960938 L 154.949219 151.960938 L 154.949219 144.511719 C 154.949219 144.511719 158.933594 139.9375 162.253906 144.511719 Z M 162.253906 169.007812 L 154.949219 169.007812 L 154.949219 161.558594 C 154.949219 161.558594 158.933594 156.984375 162.253906 161.558594 Z M 162.253906 186.050781 L 154.949219 186.050781 L 154.949219 178.601562 C 154.949219 178.601562 158.933594 174.03125 162.253906 178.601562 Z M 162.253906 203.097656 L 154.949219 203.097656 L 154.949219 195.644531 C 154.949219 195.644531 158.933594 191.074219 162.253906 195.644531 Z M 162.253906 220.140625 L 154.949219 220.140625 L 154.949219 212.691406 C 154.949219 212.691406 158.933594 208.117188 162.253906 212.691406 Z M 143.902344 134.917969 L 136.597656 134.917969 L 136.597656 127.46875 C 136.597656 127.46875 140.582031 122.894531 143.902344 127.46875 Z M 143.902344 151.960938 L 136.597656 151.960938 L 136.597656 144.511719 C 136.597656 144.511719 140.582031 139.9375 143.902344 144.511719 Z M 143.902344 169.007812 L 136.597656 169.007812 L 136.597656 161.558594 C 136.597656 161.558594 140.582031 156.984375 143.902344 161.558594 Z M 143.902344 186.050781 L 136.597656 186.050781 L 136.597656 178.601562 C 136.597656 178.601562 140.582031 174.03125 143.902344 178.601562 Z M 143.902344 203.097656 L 136.597656 203.097656 L 136.597656 195.644531 C 136.597656 195.644531 140.582031 191.074219 143.902344 195.644531 Z M 143.902344 220.140625 L 136.597656 220.140625 L 136.597656 212.691406 C 136.597656 212.691406 140.582031 208.117188 143.902344 212.691406 Z M 132.292969 235.609375 L 131.019531 235.714844 L 131.019531 121.121094 L 132.292969 121.121094 Z M 283.0625 223.109375 L 259.257812 225.082031 L 259.257812 133.96875 L 221.15625 130.96875 L 197.957031 135.984375 L 197.953125 187.257812 L 187.414062 187.019531 L 187.53125 121.855469 L 131.585938 120.136719 L 103.394531 127.359375 L 103.394531 228.992188 L 125.875 236.140625 L 91.523438 238.988281 L 91.976562 244.492188 L 283.515625 228.613281 L 283.0625 223.109375 " fill-opacity="1" fill-rule="nonzero"/></g></svg>