<svg xmlns="http://www.w3.org/2000/svg" xmlns:xlink="http://www.w3.org/1999/xlink" width="500" zoomAndPan="magnify" viewBox="0 0 375 374.999991" height="500" preserveAspectRatio="xMidYMid meet" version="1.0"><defs><clipPath id="b3a5ccc6e0"><path d="M 0 23.164062 L 375 23.164062 L 375 352 L 0 352 Z M 0 23.164062 " clip-rule="nonzero"/></clipPath><clipPath id="b06e95bf39"><path d="M 280.683594 23.164062 L 94.316406 23.164062 L 0 187.5 L 94.316406 351.835938 L 280.683594 351.835938 L 375 187.5 L 280.683594 23.164062 M 275.554688 342.933594 L 99.445312 342.933594 L 10.261719 187.5 L 99.445312 32.066406 L 275.554688 32.066406 L 364.738281 187.5 L 275.554688 342.933594 " clip-rule="nonzero"/></clipPath><clipPath id="796add482e"><path d="M 109 128 L 253 128 L 253 267.65625 L 109 267.65625 Z M 109 128 " clip-rule="nonzero"/></clipPath><clipPath id="cecdcb0b78"><path d="M 218 107.15625 L 224 107.15625 L 224 124 L 218 124 Z M 218 107.15625 " clip-rule="nonzero"/></clipPath><clipPath id="b01795621d"><path d="M 257 155 L 273.550781 155 L 273.550781 161 L 257 161 Z M 257 155 " clip-rule="nonzero"/></clipPath><clipPath id="114886a335"><path d="M 101.800781 107.15625 L 161 107.15625 L 161 167 L 101.800781 167 Z M 101.800781 107.15625 " clip-rule="nonzero"/></clipPath></defs><g clip-path="url(#b3a5ccc6e0)"><g clip-path="url(#b06e95bf39)"><path fill="#fecc02" d="M 0 23.164062 L 375 23.164062 L 375 352.136719 L 0 352.136719 Z M 0 23.164062 " fill-opacity="1" fill-rule="nonzero"/></g></g><path fill="#b90504" d="M 142.054688 136.582031 C 142.054688 136.9375 141.984375 137.277344 141.847656 137.605469 C 141.710938 137.933594 141.519531 138.222656 141.265625 138.472656 C 141.015625 138.722656 140.726562 138.917969 140.398438 139.050781 C 140.066406 139.1875 139.726562 139.257812 139.371094 139.257812 C 139.015625 139.257812 138.671875 139.1875 138.34375 139.050781 C 138.015625 138.917969 137.722656 138.722656 137.472656 138.472656 C 137.21875 138.222656 137.027344 137.933594 136.890625 137.605469 C 136.753906 137.277344 136.6875 136.9375 136.6875 136.582031 C 136.6875 136.226562 136.753906 135.886719 136.890625 135.558594 C 137.027344 135.230469 137.21875 134.941406 137.472656 134.691406 C 137.722656 134.4375 138.015625 134.246094 138.34375 134.109375 C 138.671875 133.972656 139.015625 133.90625 139.371094 133.90625 C 139.726562 133.90625 140.066406 133.972656 140.398438 134.109375 C 140.726562 134.246094 141.015625 134.4375 141.265625 134.691406 C 141.519531 134.941406 141.710938 135.230469 141.847656 135.558594 C 141.984375 135.886719 142.054688 136.226562 142.054688 136.582031 Z M 142.054688 136.582031 " fill-opacity="1" fill-rule="nonzero"/><path fill="#b90504" d="M 125.953125 136.582031 C 125.953125 136.9375 125.882812 137.277344 125.746094 137.605469 C 125.609375 137.933594 125.417969 138.222656 125.164062 138.472656 C 124.914062 138.722656 124.625 138.917969 124.296875 139.050781 C 123.964844 139.1875 123.625 139.257812 123.269531 139.257812 C 122.914062 139.257812 122.570312 139.1875 122.242188 139.050781 C 121.914062 138.917969 121.621094 138.722656 121.371094 138.472656 C 121.117188 138.222656 120.925781 137.933594 120.789062 137.605469 C 120.652344 137.277344 120.585938 136.9375 120.585938 136.582031 C 120.585938 136.226562 120.652344 135.886719 120.789062 135.558594 C 120.925781 135.230469 121.117188 134.941406 121.371094 134.691406 C 121.621094 134.4375 121.914062 134.246094 122.242188 134.109375 C 122.570312 133.972656 122.914062 133.90625 123.269531 133.90625 C 123.625 133.90625 123.964844 133.972656 124.296875 134.109375 C 124.625 134.246094 124.914062 134.4375 125.164062 134.691406 C 125.417969 134.941406 125.609375 135.230469 125.746094 135.558594 C 125.882812 135.886719 125.953125 136.226562 125.953125 136.582031 Z M 125.953125 136.582031 " fill-opacity="1" fill-rule="nonzero"/><g clip-path="url(#796add482e)"><path fill="#b90504" d="M 120.585938 174.03125 C 119.109375 174.03125 117.902344 175.234375 117.902344 176.707031 L 117.902344 190.082031 L 112.535156 190.082031 C 111.058594 190.082031 109.851562 191.285156 109.851562 192.753906 L 109.851562 210.144531 C 109.851562 219.773438 117.632812 227.53125 127.292969 227.53125 L 127.292969 259.628906 C 127.292969 264.042969 130.917969 267.65625 135.476562 267.65625 L 215.851562 267.65625 C 220.28125 267.65625 224.035156 264.042969 224.035156 259.628906 L 224.035156 225.792969 C 227.792969 224.855469 230.746094 221.914062 231.820312 218.167969 L 234.636719 218.167969 C 239.066406 218.167969 242.6875 214.554688 242.6875 210.144531 C 242.6875 208.9375 242.417969 207.734375 241.882812 206.800781 C 244.699219 205.59375 246.714844 202.785156 246.714844 199.441406 C 246.714844 195.164062 243.359375 191.820312 239.332031 191.417969 C 239.871094 186.601562 241.882812 181.921875 245.238281 177.910156 C 249.664062 172.558594 252.214844 165.738281 252.214844 158.785156 C 252.214844 150.492188 248.859375 142.734375 242.820312 136.980469 C 236.648438 131.097656 228.332031 128.019531 219.742188 128.554688 C 203.640625 129.492188 190.761719 142.332031 190.359375 158.113281 C 190.089844 165.871094 192.90625 173.226562 198.140625 178.980469 C 201.226562 182.324219 203.238281 186.738281 203.910156 191.417969 L 203.777344 191.417969 C 199.347656 191.417969 195.726562 195.027344 195.726562 199.441406 C 195.726562 202.652344 197.738281 205.460938 200.554688 206.800781 C 200.019531 207.867188 199.75 208.9375 199.75 210.144531 C 199.75 214.554688 203.375 218.167969 207.800781 218.167969 L 210.886719 218.167969 C 211.828125 221.914062 214.914062 224.855469 218.667969 225.792969 L 218.667969 259.628906 C 218.667969 261.101562 217.460938 262.304688 215.851562 262.304688 L 135.476562 262.304688 C 134.003906 262.304688 132.660156 261.101562 132.660156 259.628906 L 132.660156 227.53125 C 142.320312 227.53125 150.105469 219.773438 150.105469 210.144531 L 150.105469 192.753906 C 150.105469 191.285156 148.894531 190.082031 147.421875 190.082031 L 142.054688 190.082031 L 142.054688 176.707031 C 142.054688 175.234375 140.84375 174.03125 139.371094 174.03125 C 137.894531 174.03125 136.6875 175.234375 136.6875 176.707031 L 136.6875 190.082031 L 123.269531 190.082031 L 123.269531 176.707031 C 123.269531 175.234375 122.058594 174.03125 120.585938 174.03125 Z M 215.851562 169.214844 C 214.914062 169.214844 213.972656 168.679688 213.4375 167.878906 C 213.035156 167.074219 213.035156 166.003906 213.570312 165.203125 L 223.230469 149.957031 C 224.035156 148.753906 225.648438 148.351562 226.988281 149.152344 C 228.195312 149.957031 228.597656 151.5625 227.792969 152.898438 L 220.683594 164 L 226.585938 164 C 227.660156 164 228.597656 164.535156 229 165.472656 C 229.402344 166.40625 229.402344 167.476562 228.734375 168.28125 L 218 182.457031 C 217.460938 183.125 216.65625 183.527344 215.851562 183.527344 C 215.316406 183.527344 214.777344 183.394531 214.242188 182.992188 C 213.035156 182.054688 212.898438 180.449219 213.707031 179.246094 L 221.21875 169.347656 L 215.851562 169.347656 Z M 201.09375 199.441406 C 201.09375 197.972656 202.300781 196.769531 203.777344 196.769531 L 238.664062 196.769531 C 240.136719 196.769531 241.347656 197.972656 241.347656 199.441406 C 241.347656 200.914062 240.136719 202.117188 238.664062 202.117188 L 203.777344 202.117188 C 202.300781 202.117188 201.09375 200.914062 201.09375 199.441406 Z M 207.800781 212.816406 C 206.324219 212.816406 205.117188 211.613281 205.117188 210.144531 C 205.117188 208.671875 206.324219 207.46875 207.800781 207.46875 L 234.636719 207.46875 C 236.113281 207.46875 237.320312 208.671875 237.320312 210.144531 C 237.320312 211.613281 236.113281 212.816406 234.636719 212.816406 Z M 207.800781 212.816406 " fill-opacity="1" fill-rule="nonzero"/></g><g clip-path="url(#cecdcb0b78)"><path fill="#b90504" d="M 223.902344 120.53125 L 223.902344 109.832031 C 223.902344 108.359375 222.695312 107.15625 221.21875 107.15625 C 219.742188 107.15625 218.535156 108.359375 218.535156 109.832031 L 218.535156 120.53125 C 218.535156 122.003906 219.742188 123.207031 221.21875 123.207031 C 222.695312 123.207031 223.902344 122.003906 223.902344 120.53125 Z M 223.902344 120.53125 " fill-opacity="1" fill-rule="nonzero"/></g><path fill="#b90504" d="M 260.667969 122.671875 C 259.59375 121.601562 257.984375 121.601562 256.910156 122.671875 L 248.859375 130.695312 C 247.785156 131.765625 247.785156 133.371094 248.859375 134.441406 C 249.398438 134.976562 250.066406 135.242188 250.738281 135.242188 C 251.410156 135.242188 252.082031 134.976562 252.617188 134.441406 L 260.667969 126.417969 C 261.742188 125.347656 261.742188 123.742188 260.667969 122.671875 Z M 260.667969 122.671875 " fill-opacity="1" fill-rule="nonzero"/><path fill="#b90504" d="M 256.644531 180.183594 C 255.570312 179.113281 253.960938 179.113281 252.886719 180.183594 C 251.8125 181.253906 251.8125 182.859375 252.886719 183.929688 L 260.9375 191.953125 C 261.472656 192.488281 262.144531 192.753906 262.816406 192.753906 C 263.484375 192.753906 264.15625 192.488281 264.695312 191.953125 C 265.765625 190.882812 265.765625 189.277344 264.695312 188.207031 Z M 256.644531 180.183594 " fill-opacity="1" fill-rule="nonzero"/><g clip-path="url(#b01795621d)"><path fill="#b90504" d="M 270.867188 155.304688 L 260.132812 155.304688 C 258.65625 155.304688 257.449219 156.507812 257.449219 157.980469 C 257.449219 159.453125 258.65625 160.65625 260.132812 160.65625 L 270.867188 160.65625 C 272.339844 160.65625 273.550781 159.453125 273.550781 157.980469 C 273.550781 156.507812 272.339844 155.304688 270.867188 155.304688 Z M 270.867188 155.304688 " fill-opacity="1" fill-rule="nonzero"/></g><path fill="#b90504" d="M 193.578125 134.441406 C 194.652344 133.371094 194.652344 131.765625 193.578125 130.695312 L 185.527344 122.671875 C 184.453125 121.601562 182.84375 121.601562 181.769531 122.671875 C 180.695312 123.742188 180.695312 125.347656 181.769531 126.417969 L 189.820312 134.441406 C 190.359375 134.976562 191.027344 135.242188 191.699219 135.242188 C 192.371094 135.242188 193.042969 134.976562 193.578125 134.441406 Z M 193.578125 134.441406 " fill-opacity="1" fill-rule="nonzero"/><path fill="#b90504" d="M 185.796875 180.183594 L 177.746094 188.207031 C 176.671875 189.277344 176.671875 190.882812 177.746094 191.953125 C 178.28125 192.488281 178.953125 192.753906 179.625 192.753906 C 180.292969 192.753906 180.964844 192.488281 181.503906 191.953125 L 189.554688 183.929688 C 190.625 182.859375 190.625 181.253906 189.554688 180.183594 C 188.480469 179.113281 186.871094 179.113281 185.796875 180.183594 Z M 185.796875 180.183594 " fill-opacity="1" fill-rule="nonzero"/><path fill="#b90504" d="M 168.890625 157.980469 C 168.890625 159.453125 170.097656 160.65625 171.574219 160.65625 L 182.308594 160.65625 C 183.78125 160.65625 184.992188 159.453125 184.992188 157.980469 C 184.992188 156.507812 183.78125 155.304688 182.308594 155.304688 L 171.574219 155.304688 C 170.097656 155.304688 168.890625 156.507812 168.890625 157.980469 Z M 168.890625 157.980469 " fill-opacity="1" fill-rule="nonzero"/><g clip-path="url(#114886a335)"><path fill="#b90504" d="M 109.851562 166.003906 L 152.789062 166.003906 C 157.214844 166.003906 160.839844 162.394531 160.839844 157.980469 L 160.839844 115.179688 C 160.839844 110.765625 157.214844 107.15625 152.789062 107.15625 L 109.851562 107.15625 C 105.421875 107.15625 101.800781 110.765625 101.800781 115.179688 L 101.800781 157.980469 C 101.800781 162.394531 105.421875 166.003906 109.851562 166.003906 Z M 131.320312 117.855469 C 141.652344 117.855469 150.105469 126.28125 150.105469 136.582031 C 150.105469 146.878906 141.652344 155.304688 131.320312 155.304688 C 120.988281 155.304688 112.535156 146.878906 112.535156 136.582031 C 112.535156 126.28125 120.988281 117.855469 131.320312 117.855469 Z M 131.320312 117.855469 " fill-opacity="1" fill-rule="nonzero"/></g></svg>