<svg xmlns="http://www.w3.org/2000/svg" xmlns:xlink="http://www.w3.org/1999/xlink" width="500" zoomAndPan="magnify" viewBox="0 0 375 374.999991" height="500" preserveAspectRatio="xMidYMid meet" version="1.0"><defs><clipPath id="5e29fea14b"><path d="M 0 23.164062 L 375 23.164062 L 375 352 L 0 352 Z M 0 23.164062 " clip-rule="nonzero"/></clipPath><clipPath id="c36dde24e5"><path d="M 280.683594 23.164062 L 94.316406 23.164062 L 0 187.5 L 94.316406 351.835938 L 280.683594 351.835938 L 375 187.5 L 280.683594 23.164062 M 275.554688 342.933594 L 99.445312 342.933594 L 10.261719 187.5 L 99.445312 32.066406 L 275.554688 32.066406 L 364.738281 187.5 L 275.554688 342.933594 " clip-rule="nonzero"/></clipPath><clipPath id="c9137a3a37"><path d="M 106.402344 99.351562 L 268.402344 99.351562 L 268.402344 169 L 106.402344 169 Z M 106.402344 99.351562 " clip-rule="nonzero"/></clipPath><clipPath id="abe88e55cc"><path d="M 126 184 L 249 184 L 249 275.601562 L 126 275.601562 Z M 126 184 " clip-rule="nonzero"/></clipPath><clipPath id="cb210fbd06"><path d="M 107 270 L 268 270 L 268 275.601562 L 107 275.601562 Z M 107 270 " clip-rule="nonzero"/></clipPath></defs><g clip-path="url(#5e29fea14b)"><g clip-path="url(#c36dde24e5)"><path fill="#fecc02" d="M 0 23.164062 L 375 23.164062 L 375 352.136719 L 0 352.136719 Z M 0 23.164062 " fill-opacity="1" fill-rule="nonzero"/></g></g><g clip-path="url(#c9137a3a37)"><path fill="#b90504" d="M 265.65625 168.066406 C 264.96875 168.066406 264.625 167.722656 263.941406 167.378906 L 200.445312 103.828125 C 199.414062 102.796875 199.414062 101.421875 200.445312 100.390625 C 201.132812 99.359375 202.847656 99.359375 203.535156 100.390625 L 267.371094 163.945312 C 268.402344 164.972656 268.402344 166.347656 267.371094 167.378906 C 267.03125 167.722656 266.34375 168.066406 265.65625 168.066406 Z M 109.148438 168.066406 C 108.460938 168.066406 107.773438 167.722656 107.433594 167.378906 C 106.402344 166.347656 106.402344 164.972656 107.433594 163.945312 L 171.269531 100.390625 C 171.957031 99.359375 173.671875 99.359375 174.359375 100.390625 C 175.390625 101.421875 175.390625 102.796875 174.359375 103.828125 L 110.863281 167.378906 C 110.179688 167.722656 109.835938 168.066406 109.148438 168.066406 Z M 109.148438 168.066406 " fill-opacity="1" fill-rule="evenodd"/></g><path fill="#b90504" d="M 251.242188 191.082031 C 248.152344 191.082031 245.40625 190.050781 243.347656 187.992188 L 187.402344 131.996094 L 131.457031 187.992188 C 129.398438 190.050781 126.652344 191.082031 123.5625 191.082031 C 120.816406 191.082031 118.070312 190.050781 116.011719 187.992188 C 113.953125 185.929688 112.582031 183.179688 112.582031 180.433594 C 112.582031 177.339844 113.953125 174.59375 116.011719 172.53125 L 179.507812 108.980469 C 181.566406 106.917969 184.3125 105.886719 187.402344 105.886719 C 190.492188 105.886719 193.238281 106.917969 195.296875 108.980469 L 258.792969 172.53125 C 260.851562 174.59375 262.222656 177.339844 262.222656 180.433594 C 262.222656 183.179688 260.851562 185.929688 258.792969 187.992188 C 256.734375 190.050781 253.988281 191.082031 251.242188 191.082031 Z M 187.402344 126.5 C 188.089844 126.5 188.773438 126.5 189.117188 127.1875 L 246.78125 184.554688 C 247.808594 185.929688 249.523438 186.273438 251.242188 186.273438 C 252.957031 186.273438 254.332031 185.929688 255.359375 184.554688 C 255.359375 184.554688 255.703125 184.554688 255.703125 184.554688 C 256.734375 183.523438 257.417969 181.808594 257.417969 180.433594 C 257.417969 178.714844 256.734375 176.996094 255.359375 175.96875 L 191.863281 112.414062 C 190.492188 111.382812 189.117188 110.699219 187.402344 110.699219 C 185.6875 110.699219 184.3125 111.382812 182.941406 112.414062 L 119.445312 175.96875 C 118.070312 176.996094 117.386719 178.714844 117.386719 180.433594 C 117.386719 181.808594 118.070312 183.523438 119.445312 184.554688 C 120.472656 185.929688 121.847656 186.273438 123.5625 186.273438 C 125.28125 186.273438 126.996094 185.929688 128.023438 184.554688 L 185.6875 127.1875 C 186.03125 126.5 186.714844 126.5 187.402344 126.5 Z M 187.402344 126.5 " fill-opacity="1" fill-rule="evenodd"/><g clip-path="url(#abe88e55cc)"><path fill="#b90504" d="M 245.75 275.589844 L 129.054688 275.589844 C 127.683594 275.589844 126.652344 274.558594 126.652344 273.183594 L 126.652344 186.960938 C 126.652344 186.273438 126.996094 185.585938 127.339844 185.242188 C 127.683594 184.898438 127.683594 184.898438 128.023438 184.554688 C 129.054688 183.867188 130.429688 183.867188 131.457031 184.554688 C 132.488281 185.585938 132.488281 186.960938 131.457031 187.992188 L 131.457031 270.78125 L 243.347656 270.78125 L 243.347656 186.960938 C 243.347656 185.585938 244.71875 184.554688 245.75 184.554688 C 247.121094 184.554688 248.152344 185.585938 248.152344 186.960938 L 248.152344 273.183594 C 248.152344 274.558594 247.121094 275.589844 245.75 275.589844 Z M 245.75 275.589844 " fill-opacity="1" fill-rule="evenodd"/></g><g clip-path="url(#cb210fbd06)"><path fill="#b90504" d="M 264.625 275.589844 L 110.179688 275.589844 C 108.804688 275.589844 107.773438 274.558594 107.773438 273.183594 C 107.773438 271.8125 108.804688 270.78125 110.179688 270.78125 L 264.625 270.78125 C 266 270.78125 267.03125 271.8125 267.03125 273.183594 C 267.03125 274.558594 266 275.589844 264.625 275.589844 Z M 264.625 275.589844 " fill-opacity="1" fill-rule="evenodd"/></g><path fill="#b90504" d="M 159.601562 266.316406 C 155.140625 266.316406 150.679688 264.597656 147.246094 261.503906 C 144.15625 258.070312 142.441406 253.605469 142.441406 249.136719 C 142.441406 244.328125 144.15625 240.207031 147.246094 236.769531 C 150.679688 233.679688 155.140625 231.960938 159.601562 231.960938 C 160.972656 231.960938 162.347656 231.960938 163.71875 232.304688 L 176.074219 219.59375 C 176.761719 219.25 177.105469 218.90625 177.792969 218.90625 C 178.480469 218.90625 179.164062 219.25 179.507812 219.59375 L 189.117188 229.214844 C 190.148438 230.246094 190.148438 231.617188 189.117188 232.648438 L 176.417969 245.015625 C 177.792969 250.855469 176.074219 257.039062 171.957031 261.503906 C 168.523438 264.597656 164.40625 266.316406 159.601562 266.316406 Z M 159.601562 236.769531 C 156.167969 236.769531 153.082031 237.800781 150.679688 240.207031 C 148.273438 242.613281 147.246094 245.703125 147.246094 249.136719 C 147.246094 252.574219 148.273438 255.664062 150.679688 258.070312 C 153.082031 260.476562 156.167969 261.503906 159.601562 261.503906 C 163.035156 261.503906 166.121094 260.476562 168.523438 258.070312 C 171.957031 254.632812 172.988281 249.824219 171.613281 245.359375 C 171.269531 244.328125 171.613281 243.296875 171.957031 242.613281 L 183.96875 230.929688 L 177.792969 224.746094 L 166.121094 236.769531 C 165.4375 237.457031 164.40625 237.457031 163.375 237.113281 C 162.347656 236.769531 160.972656 236.769531 159.601562 236.769531 Z M 197.011719 223.71875 C 196.324219 223.71875 195.640625 223.375 195.296875 223.03125 L 185.6875 213.410156 C 184.65625 212.722656 184.65625 211.007812 185.6875 209.976562 L 193.582031 202.074219 C 190.835938 194.519531 192.894531 185.585938 198.730469 180.089844 C 202.847656 175.96875 207.996094 173.5625 213.832031 173.5625 C 216.234375 173.5625 218.292969 173.90625 220.695312 174.9375 C 221.382812 174.9375 222.066406 175.625 222.066406 176.65625 C 222.410156 177.339844 222.066406 178.371094 221.382812 178.714844 L 209.023438 191.425781 L 217.261719 199.671875 L 229.960938 187.304688 C 230.304688 186.617188 231.335938 186.273438 232.019531 186.617188 C 233.050781 186.617188 233.738281 187.304688 233.738281 187.992188 C 236.484375 195.890625 234.421875 204.136719 228.933594 209.976562 C 224.8125 214.097656 219.320312 216.160156 213.832031 216.160156 C 211.429688 216.160156 209.023438 215.816406 206.621094 215.128906 L 198.730469 223.03125 C 198.042969 223.375 197.355469 223.71875 197.011719 223.71875 Z M 190.835938 211.695312 L 197.011719 217.878906 L 204.21875 210.664062 C 204.90625 209.632812 205.9375 209.632812 206.964844 209.976562 C 209.023438 211.007812 211.429688 211.351562 213.832031 211.351562 C 218.292969 211.351562 222.410156 209.632812 225.5 206.542969 C 228.933594 203.105469 230.648438 198.296875 230.304688 193.832031 L 218.980469 204.824219 C 217.949219 205.855469 216.574219 205.855469 215.546875 204.824219 L 203.875 193.144531 C 203.191406 192.800781 203.191406 192.113281 203.191406 191.425781 C 203.191406 190.738281 203.191406 190.050781 203.875 189.707031 L 214.859375 178.714844 C 214.515625 178.371094 214.171875 178.371094 213.832031 178.371094 C 209.367188 178.371094 205.25 180.089844 202.160156 183.179688 C 197.355469 187.992188 195.984375 195.546875 198.730469 201.730469 C 199.070312 202.761719 199.070312 203.792969 198.386719 204.480469 Z M 190.835938 211.695312 " fill-opacity="1" fill-rule="evenodd"/><path fill="#b90504" d="M 158.914062 258.414062 C 156.855469 258.414062 154.796875 257.382812 153.421875 256.007812 C 150.335938 252.917969 150.335938 247.765625 153.421875 245.015625 C 154.796875 243.296875 156.855469 242.613281 158.914062 242.613281 C 160.972656 242.613281 163.035156 243.296875 164.40625 245.015625 C 167.496094 247.765625 167.496094 252.917969 164.40625 256.007812 C 163.035156 257.382812 160.972656 258.414062 158.914062 258.414062 Z M 158.914062 247.421875 C 158.230469 247.421875 157.199219 247.765625 156.855469 248.109375 C 155.484375 249.480469 155.484375 251.542969 156.855469 252.574219 C 157.199219 253.261719 158.230469 253.605469 158.914062 253.605469 C 159.601562 253.605469 160.632812 253.261719 160.972656 252.574219 C 162.347656 251.542969 162.347656 249.480469 160.972656 248.109375 C 160.632812 247.765625 159.601562 247.421875 158.914062 247.421875 Z M 158.914062 247.421875 " fill-opacity="1" fill-rule="evenodd"/><path fill="#b90504" d="M 215.203125 266.316406 C 210.398438 266.316406 206.28125 264.597656 202.847656 261.503906 C 198.730469 257.039062 197.011719 250.855469 198.386719 245.015625 L 168.183594 215.128906 C 165.78125 215.816406 163.375 216.160156 160.972656 216.160156 C 155.484375 216.160156 149.992188 214.097656 145.871094 209.976562 C 140.382812 204.136719 138.320312 195.890625 141.066406 187.992188 C 141.066406 187.304688 141.753906 186.617188 142.785156 186.617188 C 143.46875 186.273438 144.5 186.617188 144.84375 187.304688 L 157.542969 199.671875 L 165.78125 191.425781 L 153.421875 178.714844 C 152.738281 178.371094 152.394531 177.339844 152.738281 176.65625 C 152.738281 175.625 153.421875 174.9375 154.109375 174.9375 C 156.511719 173.90625 158.570312 173.5625 160.972656 173.5625 C 166.808594 173.5625 171.957031 175.96875 176.074219 180.089844 C 181.910156 185.585938 183.96875 194.519531 181.222656 202.074219 L 211.085938 232.304688 C 212.457031 231.960938 213.832031 231.960938 215.203125 231.960938 C 219.664062 231.960938 224.125 233.679688 227.558594 236.769531 C 230.648438 240.207031 232.363281 244.328125 232.363281 249.136719 C 232.363281 253.605469 230.648438 258.070312 227.558594 261.503906 C 224.125 264.597656 219.664062 266.316406 215.203125 266.316406 Z M 168.867188 209.632812 C 169.554688 209.632812 169.898438 209.976562 170.585938 210.664062 L 202.847656 242.613281 C 203.191406 243.296875 203.535156 244.328125 203.191406 245.359375 C 201.816406 249.824219 202.847656 254.632812 206.28125 258.070312 C 208.683594 260.476562 211.769531 261.503906 215.203125 261.503906 C 218.636719 261.503906 221.722656 260.476562 224.125 258.070312 C 226.53125 255.664062 227.558594 252.574219 227.558594 249.136719 C 227.558594 245.703125 226.53125 242.613281 224.125 240.207031 C 221.722656 237.800781 218.636719 236.769531 215.203125 236.769531 C 213.832031 236.769531 212.457031 236.769531 211.429688 237.113281 C 210.398438 237.457031 209.367188 237.457031 208.683594 236.769531 L 176.417969 204.480469 C 175.734375 203.792969 175.734375 202.761719 176.074219 201.730469 C 178.820312 195.546875 177.449219 187.992188 172.644531 183.179688 C 169.554688 180.089844 165.4375 178.371094 160.972656 178.371094 C 160.632812 178.371094 160.289062 178.371094 159.945312 178.714844 L 170.929688 189.707031 C 171.613281 190.050781 171.613281 190.738281 171.613281 191.425781 C 171.613281 192.113281 171.613281 192.800781 170.929688 193.144531 L 159.257812 204.824219 C 158.230469 205.855469 156.855469 205.855469 155.824219 204.824219 L 144.5 193.832031 C 144.15625 198.296875 145.871094 203.105469 149.304688 206.542969 C 152.394531 209.632812 156.511719 211.351562 160.972656 211.351562 C 163.375 211.351562 165.78125 211.007812 167.839844 209.976562 C 168.183594 209.976562 168.523438 209.632812 168.867188 209.632812 Z M 168.867188 209.632812 " fill-opacity="1" fill-rule="evenodd"/><path fill="#b90504" d="M 214.859375 257.726562 C 212.800781 257.726562 210.742188 257.039062 209.367188 255.320312 C 207.996094 253.949219 206.964844 251.886719 206.964844 249.824219 C 206.964844 247.765625 207.996094 245.703125 209.367188 244.328125 C 210.742188 242.953125 212.800781 241.925781 214.859375 241.925781 C 216.917969 241.925781 218.980469 242.953125 220.695312 244.328125 C 223.785156 247.421875 223.785156 252.230469 220.695312 255.320312 C 218.980469 257.039062 216.917969 257.726562 214.859375 257.726562 Z M 214.859375 246.734375 C 214.171875 246.734375 213.488281 247.078125 212.800781 247.765625 C 212.113281 248.453125 211.769531 249.136719 211.769531 249.824219 C 211.769531 250.855469 212.113281 251.542969 212.800781 252.230469 C 213.488281 252.574219 214.171875 252.917969 214.859375 252.917969 C 215.890625 252.917969 216.574219 252.574219 217.261719 252.230469 C 218.292969 250.855469 218.292969 248.792969 217.261719 247.765625 C 216.574219 247.078125 215.890625 246.734375 214.859375 246.734375 Z M 214.859375 246.734375 " fill-opacity="1" fill-rule="evenodd"/></svg>