<svg xmlns="http://www.w3.org/2000/svg" xmlns:xlink="http://www.w3.org/1999/xlink" width="500" zoomAndPan="magnify" viewBox="0 0 375 374.999991" height="500" preserveAspectRatio="xMidYMid meet" version="1.0"><defs><clipPath id="b823c070dd"><path d="M 0 23.164062 L 375 23.164062 L 375 352 L 0 352 Z M 0 23.164062 " clip-rule="nonzero"/></clipPath><clipPath id="a4a7bd61a7"><path d="M 280.683594 23.164062 L 94.316406 23.164062 L 0 187.5 L 94.316406 351.835938 L 280.683594 351.835938 L 375 187.5 L 280.683594 23.164062 M 275.554688 342.933594 L 99.445312 342.933594 L 10.261719 187.5 L 99.445312 32.066406 L 275.554688 32.066406 L 364.738281 187.5 L 275.554688 342.933594 " clip-rule="nonzero"/></clipPath><clipPath id="a3a873bd0b"><path d="M 194 106 L 282.832031 106 L 282.832031 203 L 194 203 Z M 194 106 " clip-rule="nonzero"/></clipPath><clipPath id="52c03430f7"><path d="M 92.332031 116 L 243 116 L 243 268.917969 L 92.332031 268.917969 Z M 92.332031 116 " clip-rule="nonzero"/></clipPath></defs><g clip-path="url(#b823c070dd)"><g clip-path="url(#a4a7bd61a7)"><path fill="#fecc02" d="M 0 23.164062 L 375 23.164062 L 375 352.136719 L 0 352.136719 Z M 0 23.164062 " fill-opacity="1" fill-rule="nonzero"/></g></g><g clip-path="url(#a3a873bd0b)"><path fill="#b90504" d="M 278.214844 158.726562 L 261.527344 164.335938 L 244.957031 154.871094 L 261.507812 145.402344 L 278.214844 151.011719 C 278.535156 151.132812 278.871094 151.183594 279.226562 151.183594 C 280.542969 151.183594 281.773438 150.339844 282.230469 149.027344 C 282.785156 147.359375 281.894531 145.574219 280.222656 145.015625 L 268.882812 141.191406 L 279.226562 135.316406 C 280.726562 134.4375 281.269531 132.5 280.390625 130.984375 C 279.53125 129.46875 277.589844 128.929688 276.054688 129.808594 L 265.746094 135.703125 L 268.207031 124.011719 C 268.5625 122.292969 267.464844 120.628906 265.746094 120.273438 C 264.023438 119.886719 262.351562 120.996094 262 122.714844 L 258.386719 139.914062 L 241.734375 149.414062 L 241.734375 129.671875 L 254.894531 118 C 256.195312 116.835938 256.3125 114.832031 255.148438 113.535156 C 253.984375 112.222656 251.976562 112.105469 250.675781 113.265625 L 241.734375 121.199219 L 241.734375 109.324219 C 241.734375 107.574219 240.316406 106.160156 238.558594 106.160156 C 236.804688 106.160156 235.386719 107.574219 235.386719 109.324219 L 235.386719 121.199219 L 226.445312 113.265625 C 225.128906 112.105469 223.136719 112.222656 221.972656 113.535156 C 220.792969 114.832031 220.925781 116.835938 222.226562 118 L 235.386719 129.671875 L 235.386719 149.414062 L 218.75 139.914062 L 215.121094 122.714844 C 214.769531 120.996094 213.082031 119.902344 211.359375 120.273438 C 209.65625 120.628906 208.558594 122.3125 208.914062 124.011719 L 211.375 135.703125 L 201.050781 129.808594 C 199.53125 128.929688 197.589844 129.46875 196.714844 130.984375 C 195.851562 132.5 196.390625 134.4375 197.910156 135.316406 L 208.238281 141.191406 L 196.898438 145.015625 C 195.226562 145.574219 194.332031 147.359375 194.890625 149.027344 C 195.328125 150.339844 196.578125 151.183594 197.910156 151.183594 C 198.25 151.183594 198.570312 151.132812 198.90625 151.011719 L 215.59375 145.402344 L 232.164062 154.871094 L 215.59375 164.335938 L 198.90625 158.726562 C 197.253906 158.1875 195.449219 159.066406 194.890625 160.730469 C 194.332031 162.382812 195.226562 164.183594 196.898438 164.742188 L 208.238281 168.546875 L 197.910156 174.441406 C 196.390625 175.300781 195.871094 177.238281 196.730469 178.773438 C 197.304688 179.78125 198.382812 180.355469 199.480469 180.355469 C 200.019531 180.355469 200.558594 180.21875 201.050781 179.933594 L 211.375 174.039062 L 208.914062 185.726562 C 208.558594 187.445312 209.65625 189.113281 211.375 189.484375 C 211.597656 189.535156 211.816406 189.550781 212.035156 189.550781 C 213.503906 189.550781 214.820312 188.523438 215.121094 187.023438 L 218.75 169.84375 L 235.386719 160.34375 L 235.386719 178.871094 L 222.242188 190.546875 C 220.925781 191.707031 220.808594 193.710938 221.972656 195.007812 C 222.597656 195.714844 223.476562 196.070312 224.335938 196.070312 C 225.09375 196.070312 225.835938 195.816406 226.445312 195.277344 L 235.386719 187.34375 L 235.386719 199.21875 C 235.386719 200.953125 236.824219 202.386719 238.558594 202.386719 C 240.316406 202.386719 241.75 200.953125 241.75 199.21875 L 241.75 187.34375 L 250.675781 195.277344 C 251.992188 196.441406 253.984375 196.324219 255.164062 195.007812 C 256.328125 193.710938 256.195312 191.707031 254.894531 190.546875 L 241.75 178.871094 L 241.75 160.34375 L 258.386719 169.84375 L 262 187.042969 C 262.300781 188.523438 263.636719 189.550781 265.101562 189.550781 C 265.304688 189.550781 265.523438 189.535156 265.761719 189.484375 C 267.464844 189.113281 268.5625 187.445312 268.207031 185.726562 L 265.761719 174.054688 L 276.070312 179.933594 C 276.578125 180.21875 277.117188 180.355469 277.65625 180.355469 C 278.753906 180.355469 279.816406 179.78125 280.40625 178.773438 C 281.269531 177.238281 280.746094 175.320312 279.226562 174.441406 L 268.898438 168.546875 L 280.238281 164.742188 C 281.894531 164.183594 282.804688 162.382812 282.230469 160.730469 C 281.671875 159.066406 279.867188 158.1875 278.214844 158.726562 " fill-opacity="1" fill-rule="nonzero"/></g><path fill="#b90504" d="M 168.5 182.324219 C 174.339844 182.324219 179.078125 187.058594 179.078125 192.871094 C 179.078125 198.699219 174.339844 203.449219 168.5 203.449219 C 162.660156 203.449219 157.917969 198.699219 157.917969 192.871094 C 157.917969 187.058594 162.660156 182.324219 168.5 182.324219 Z M 157.125 152.5625 C 157.125 146.261719 162.222656 141.144531 168.5 141.144531 C 174.777344 141.144531 179.871094 146.261719 179.871094 152.5625 C 179.871094 156.488281 176.414062 167.367188 172.953125 176.597656 C 171.539062 176.210938 170.050781 175.992188 168.5 175.992188 C 166.949219 175.992188 165.445312 176.210938 164.011719 176.597656 C 160.570312 167.402344 157.125 156.539062 157.125 152.5625 Z M 184.832031 197.265625 C 194.402344 199.910156 205.21875 203.53125 208.304688 205.773438 C 213.417969 209.460938 214.582031 216.585938 210.921875 221.65625 C 208.792969 224.585938 205.335938 226.339844 201.691406 226.339844 C 199.277344 226.339844 196.949219 225.582031 194.976562 224.148438 C 191.886719 221.925781 185.40625 213.234375 180.042969 205.214844 C 182.320312 203.09375 184.007812 200.367188 184.832031 197.265625 Z M 141.941406 224.148438 C 139.964844 225.582031 137.636719 226.339844 135.207031 226.339844 C 131.5625 226.339844 128.121094 224.585938 125.996094 221.65625 C 122.316406 216.585938 123.480469 209.476562 128.59375 205.773438 C 131.699219 203.515625 142.582031 199.894531 152.164062 197.25 C 152.992188 200.316406 154.644531 203.042969 156.90625 205.164062 C 151.523438 213.199219 145.027344 221.925781 141.941406 224.148438 Z M 151.726562 190.765625 C 141.164062 193.59375 128.863281 197.738281 124.863281 200.636719 C 116.917969 206.378906 115.109375 217.480469 120.847656 225.378906 C 124.171875 229.941406 129.539062 232.671875 135.207031 232.671875 C 138.96875 232.671875 142.597656 231.507812 145.652344 229.285156 C 150.394531 225.851562 159.085938 213.269531 161.632812 209.476562 C 161.851562 209.15625 162.039062 208.871094 162.238281 208.570312 C 164.179688 209.34375 166.289062 209.78125 168.5 209.78125 C 170.695312 209.78125 172.769531 209.34375 174.675781 208.601562 C 174.878906 208.886719 175.0625 209.175781 175.265625 209.476562 C 177.8125 213.25 186.503906 225.851562 191.246094 229.285156 C 194.316406 231.507812 197.929688 232.671875 201.691406 232.671875 C 207.378906 232.671875 212.726562 229.941406 216.050781 225.378906 C 221.789062 217.480469 219.980469 206.378906 212.050781 200.636719 C 208.035156 197.738281 195.820312 193.628906 185.289062 190.796875 C 184.714844 186.148438 182.253906 182.089844 178.675781 179.394531 C 178.945312 178.652344 179.230469 177.914062 179.519531 177.105469 C 181.105469 172.824219 186.21875 158.40625 186.21875 152.5625 C 186.21875 142.761719 178.269531 134.808594 168.5 134.808594 C 158.730469 134.808594 150.78125 142.761719 150.78125 152.5625 C 150.78125 158.441406 155.878906 172.824219 157.429688 177.085938 C 157.734375 177.929688 158.019531 178.671875 158.308594 179.429688 C 154.765625 182.105469 152.300781 186.148438 151.726562 190.765625 " fill-opacity="1" fill-rule="nonzero"/><g clip-path="url(#52c03430f7)"><path fill="#b90504" d="M 239.253906 207.660156 C 237.699219 207.660156 236.402344 208.789062 236.128906 210.269531 L 236.113281 210.269531 C 228.367188 240.320312 201 262.585938 168.5 262.585938 C 129.992188 262.585938 98.675781 231.324219 98.675781 192.886719 C 98.675781 154.449219 129.992188 123.1875 168.5 123.1875 C 176.09375 123.1875 183.398438 124.417969 190.234375 126.675781 L 190.25 126.65625 C 190.585938 126.792969 190.976562 126.875 191.363281 126.875 C 193.117188 126.875 194.402344 125.445312 194.535156 123.710938 C 194.707031 121.773438 192.445312 120.710938 192.445312 120.710938 C 184.902344 118.21875 176.871094 116.855469 168.5 116.855469 C 126.433594 116.855469 92.332031 150.894531 92.332031 192.886719 C 92.332031 234.878906 126.433594 268.917969 168.5 268.917969 C 204.121094 268.917969 234.003906 244.53125 242.339844 211.566406 C 242.339844 211.566406 242.425781 211.09375 242.425781 210.84375 C 242.425781 209.089844 241.007812 207.675781 239.253906 207.675781 L 239.253906 207.660156 " fill-opacity="1" fill-rule="nonzero"/></g></svg>