<svg xmlns="http://www.w3.org/2000/svg" xmlns:xlink="http://www.w3.org/1999/xlink" width="500" zoomAndPan="magnify" viewBox="0 0 375 374.999991" height="500" preserveAspectRatio="xMidYMid meet" version="1.0"><defs><clipPath id="c61a05c1ec"><path d="M 0 23.164062 L 375 23.164062 L 375 352 L 0 352 Z M 0 23.164062 " clip-rule="nonzero"/></clipPath><clipPath id="75f3686794"><path d="M 280.683594 23.164062 L 94.316406 23.164062 L 0 187.5 L 94.316406 351.835938 L 280.683594 351.835938 L 375 187.5 L 280.683594 23.164062 M 275.554688 342.933594 L 99.445312 342.933594 L 10.261719 187.5 L 99.445312 32.066406 L 275.554688 32.066406 L 364.738281 187.5 L 275.554688 342.933594 " clip-rule="nonzero"/></clipPath><clipPath id="95ae4d1cc7"><path d="M 103.039062 100.425781 L 271.789062 100.425781 L 271.789062 274 L 103.039062 274 Z M 103.039062 100.425781 " clip-rule="nonzero"/></clipPath></defs><g clip-path="url(#c61a05c1ec)"><g clip-path="url(#75f3686794)"><path fill="#fecc02" d="M 0 23.164062 L 375 23.164062 L 375 352.136719 L 0 352.136719 Z M 0 23.164062 " fill-opacity="1" fill-rule="nonzero"/></g></g><g clip-path="url(#95ae4d1cc7)"><path fill="#b90504" d="M 187.410156 100.425781 C 140.898438 100.425781 103.191406 138.136719 103.191406 184.660156 C 103.191406 207.390625 112.195312 228.011719 126.828125 243.164062 C 125.8125 260.242188 129.488281 271.042969 137.65625 273.371094 C 144.773438 274.421875 150.664062 272.617188 159.550781 264.167969 C 168.273438 267.226562 177.648438 268.894531 187.410156 268.894531 C 233.925781 268.894531 271.632812 231.179688 271.632812 184.660156 C 271.632812 138.136719 233.925781 100.425781 187.410156 100.425781 Z M 180.699219 235.441406 C 160.53125 259.3125 146.589844 270.90625 138.878906 270.222656 C 131.429688 266.023438 128.710938 256.855469 130.878906 241.554688 C 133.75 240.226562 136.945312 239.746094 140.464844 240.109375 L 136.707031 243.871094 C 147.921875 239.527344 159.828125 233.523438 172.417969 225.859375 C 174.476562 223.15625 176.894531 217.542969 179.667969 209.015625 L 191.121094 200.59375 C 192.988281 199.625 194.429688 202.304688 194.296875 203.929688 L 188.679688 209.09375 C 188.082031 210.453125 188.324219 210.984375 189.402344 210.683594 L 195.875 205.113281 C 197.53125 205.695312 198.179688 206.84375 197.824219 208.550781 L 191.390625 214.40625 C 191.011719 215.351562 191.414062 215.578125 192.425781 215.5 L 198.808594 210.953125 C 200.519531 211.824219 200.84375 212.503906 200.097656 214.019531 L 194.84375 218.628906 C 194.296875 219.574219 194.988281 219.878906 196.066406 219.789062 L 201.257812 216.144531 C 203.097656 216.46875 202.921875 217.976562 202.324219 219.53125 L 194.128906 227.003906 C 189.628906 232.8125 185.277344 234.789062 180.699219 235.441406 Z M 128.089844 237.152344 C 131.648438 224.78125 143.460938 202.457031 148.925781 194.878906 C 157.355469 187.035156 161.703125 211.0625 152.859375 234.488281 C 151.058594 234.796875 144.664062 237.511719 144.664062 237.511719 C 139.730469 235.683594 132.265625 236.117188 128.089844 237.152344 Z M 142.558594 169.109375 C 138.058594 169.378906 136.628906 167.367188 138.269531 163.074219 L 161.351562 149.101562 L 159.757812 153.265625 L 142.558594 163.269531 C 140.476562 165.351562 140.476562 167.300781 142.558594 169.109375 Z M 153.464844 168.335938 L 155.222656 171.453125 L 147.925781 175.652344 L 146.308594 173.183594 Z M 153.109375 175.285156 L 157.460938 182.179688 C 158.476562 182.621094 159.414062 182.511719 160.265625 181.851562 C 159.410156 183.941406 158.113281 184.566406 156.367188 183.730469 L 151.429688 176.066406 Z M 156.96875 160.535156 L 162.039062 157.421875 C 161.578125 159.953125 162.03125 162.875 163.402344 166.191406 L 187.300781 201.355469 C 186.570312 201.824219 185.878906 202.273438 185.214844 202.730469 L 161.265625 167.363281 Z M 198.957031 142.011719 C 198.195312 135.523438 192.828125 132.976562 182.855469 134.371094 C 193.453125 126.652344 202.691406 128.199219 210.574219 139.023438 Z M 212.402344 140.347656 L 224.519531 140.347656 C 217.839844 146.234375 209.210938 147.839844 198.625 145.164062 Z M 192.203125 154.746094 L 196.429688 154.1875 C 195.984375 152.914062 197.429688 150.335938 198.011719 147.648438 C 199.675781 147.820312 201.953125 148.050781 204.84375 148.347656 L 204.640625 150.5625 L 207.511719 153.433594 C 209.824219 157.425781 208.28125 158.460938 208.777344 161.699219 L 209.582031 166.011719 C 212.765625 169.175781 210.054688 171.023438 208.582031 171.210938 C 201.617188 173.050781 195.367188 171.144531 192.957031 166.679688 C 192.277344 171.144531 195.515625 173.316406 198.703125 176.527344 C 199.152344 182.867188 198.207031 188.417969 196.378906 190.402344 C 193.09375 191.074219 188.386719 191.394531 184.15625 190.722656 L 178.28125 182.285156 L 182.128906 166.679688 L 184.824219 165.089844 C 187.363281 165.992188 190.085938 165.472656 190.894531 163.914062 C 180.214844 164.664062 181.527344 142.152344 192.203125 154.746094 Z M 198.804688 193.980469 L 195.53125 201.082031 C 194.523438 198.511719 191.320312 198.265625 189.765625 199.554688 L 186.152344 193.910156 Z M 178.175781 206.542969 L 177.035156 211.046875 L 170.398438 211.046875 L 169.523438 193.378906 Z M 202.570312 236.933594 C 204.128906 234.476562 204.128906 231.621094 202.570312 228.359375 L 200.324219 225.042969 C 200.976562 224.542969 201.570312 223.96875 202.3125 223.453125 L 204.324219 226.414062 C 206.699219 231.394531 206.113281 234.898438 202.570312 236.933594 Z M 215.363281 210.929688 L 202.089844 210.9375 C 201.644531 209.246094 200.933594 208.878906 199.453125 208.320312 C 199.367188 206.34375 198.71875 203.914062 196.605469 203.246094 C 198.535156 199.601562 202.351562 192.191406 206.964844 183.496094 C 207.863281 183.515625 208.589844 184.242188 209.144531 185.671875 L 210.636719 199.214844 C 207.371094 197.941406 206.640625 196.773438 204.078125 197.234375 C 201.449219 198.253906 198.492188 202.292969 198.492188 202.292969 L 203.789062 200.296875 C 205.4375 199.765625 209.179688 201.609375 213.121094 203.773438 L 210.777344 186.28125 C 211.90625 186.78125 213.632812 187.371094 215.605469 188.035156 Z M 228.886719 245.769531 C 231.9375 246.296875 235.496094 245.699219 238.570312 244.839844 C 235.464844 247.167969 232.054688 249.394531 228.886719 251.460938 Z M 241.488281 242.527344 C 236.417969 243.027344 232.492188 243.328125 228.886719 242.640625 L 228.886719 196.699219 C 237.601562 199.835938 243.707031 218.921875 247.984375 235.199219 C 246.667969 237.6875 244.320312 240.148438 241.488281 242.527344 Z M 250.597656 230.882812 C 245.886719 216.175781 242.351562 205.484375 232.792969 195.246094 C 228.777344 191.210938 222.101562 188.757812 210.777344 184.402344 C 210.070312 182.25 209.023438 180.640625 206.960938 180.269531 L 206.90625 175.648438 L 214.285156 173.851562 C 215.769531 173.328125 218.121094 172.195312 217.941406 169.382812 C 217.902344 168.796875 217.609375 167.921875 216.5625 166.511719 C 216.679688 165.722656 218.238281 165.996094 218.324219 164.558594 C 218.449219 163.65625 218.046875 162.96875 217.109375 162.503906 L 218.550781 161.238281 L 217.613281 158.28125 L 221.1875 156.402344 C 222.175781 155.761719 222.488281 154.941406 222.132812 153.941406 L 217.648438 150.132812 C 223.714844 147.683594 230.421875 140.898438 227.554688 139.011719 C 227.09375 138.707031 213.570312 138.878906 213.570312 138.878906 C 208.542969 128.757812 200.132812 125.320312 188.335938 128.566406 C 175.480469 133.988281 170.394531 142.992188 174.289062 155.207031 C 175.085938 158.4375 176.65625 161.847656 179 165.429688 C 178.425781 171.359375 177.101562 175.664062 175.316406 179.148438 L 166.839844 166.226562 C 165.550781 161.59375 165.121094 156.992188 165.546875 152.425781 L 162.179688 146.25 L 146.703125 154.71875 L 143.566406 150.296875 L 158.824219 141.21875 L 157.792969 137.605469 C 154.445312 134.636719 151.539062 134.253906 147.839844 134.988281 L 133.464844 143.8125 C 129.824219 146.570312 130.515625 149.972656 131.519531 152.601562 L 137.0625 160.503906 C 130.988281 167.464844 137.59375 173.011719 143.3125 171.0625 L 145.347656 170.140625 L 146.027344 171.417969 L 144.609375 172.832031 C 143.550781 175.4375 145.777344 178.753906 147.925781 178.011719 L 150.070312 176.992188 C 150.734375 178.054688 152.3125 180.683594 154.871094 184.769531 C 156.875 187.128906 162.277344 185.605469 162.113281 181.511719 L 164.378906 184.617188 C 158.480469 186.753906 152.855469 188.113281 148.808594 191.320312 C 144.152344 194.515625 126.648438 230.683594 125.976562 234.390625 C 114.578125 220.359375 108.378906 202.988281 108.378906 184.660156 C 108.378906 163.546875 116.601562 143.695312 131.527344 128.765625 C 146.453125 113.835938 166.300781 105.617188 187.410156 105.617188 C 208.523438 105.617188 228.367188 113.835938 243.296875 128.765625 C 258.222656 143.695312 266.445312 163.546875 266.445312 184.660156 C 266.445312 201.847656 260.996094 218.199219 250.914062 231.738281 Z M 250.597656 230.882812 " fill-opacity="1" fill-rule="evenodd"/></g></svg>